<?xml version="1.0" encoding="utf-8"?>
<!-- Generator: Adobe Illustrator 27.6.1, SVG Export Plug-In . SVG Version: 6.00 Build 0)  -->
<svg version="1.1" id="Capa_1" xmlns="http://www.w3.org/2000/svg" xmlns:xlink="http://www.w3.org/1999/xlink" x="0px" y="0px"
	 viewBox="0 0 1920 1080" style="enable-background:new 0 0 1920 1080;" xml:space="preserve">
<style type="text/css">
	.st0{fill:#0473FB;}
	.st1{fill:#F7F7F7;}
</style>
<rect class="st0" width="1920" height="1080"/>
<g id="Logo_00000112595525533544077290000017636191146363797422_">
	<g>
		<g>
			<g>
				<path class="st1" d="M806.94,505.19h21.84c0.17,9.09,6.99,15.2,20.62,15.2c13.81,0,20.62-6.12,20.62-15.2
					c0-9.96-10.66-11.88-23.07-14.16c-17.3-3.15-37.75-6.81-37.75-33.38c0-21.15,16.08-36,40.37-36c23.59,0,39.49,14.16,40.37,35.13
					h-21.15c-0.17-8.74-6.64-15.03-19.05-15.03c-12.58,0-18.87,6.82-18.87,15.2c0,9.96,10.66,11.88,23.07,14.16
					c17.3,3.15,37.92,6.82,37.92,33.38c0,22.19-16.95,36-42.47,36C824.07,540.49,807.47,527.03,806.94,505.19z"/>
			</g>
		</g>
		<g>
			<g>
				<path class="st1" d="M897.16,407.46h20.8v56.49c5.77-9.26,14.68-14.33,25.69-14.33c19.92,0,38.8,12.93,38.8,43.69v44.91h-20.8
					V493.3c0-16.43-8.74-24.29-21.84-24.29c-12.76,0-21.84,8.21-21.84,24.29v44.91h-20.8V407.46z"/>
			</g>
		</g>
		<g>
			<g>
				<path class="st1" d="M989.29,495.05c0-26.21,19.22-45.44,46.49-45.44s46.48,19.22,46.48,45.44c0,26.21-19.22,45.44-46.48,45.44
					S989.29,521.26,989.29,495.05z M1061.12,495.05c0-15.2-10.14-26.04-25.34-26.04c-15.2,0-25.51,10.83-25.51,26.04
					c0,15.2,10.31,26.04,25.51,26.04C1050.98,521.09,1061.12,510.25,1061.12,495.05z"/>
			</g>
		</g>
		<g>
			<g>
				<path class="st1" d="M1089.52,488.06c0-26.04,15.38-38.45,37.92-38.45c22.54,0,37.75,12.41,37.75,38.8v0.52h-20.62v-0.87
					c0-13.98-6.99-19.05-17.13-19.05c-10.13,0-17.12,5.07-17.12,19.05v50.15h-20.8V488.06z"/>
			</g>
		</g>
		<g>
			<g>
				<path class="st1" d="M1169.91,505.01V421.3h20.8v30.58h44.56v18.87h-44.56v34.25c0,11.53,5.94,16.08,14.5,16.08
					c8.56,0,14.5-4.37,14.5-16.08v-2.27h20.8v2.27c0,23.94-14.33,35.47-35.3,35.47S1169.91,528.95,1169.91,505.01z"/>
			</g>
		</g>
	</g>
	<g>
		<g>
			<path class="st1" d="M811.64,591.22c0,8.73,6.27,16.93,17.51,16.93c3.63,0,7.32-0.82,10.54-3.16v-9.55h-11.83v-3.81h15.93v15.17
				c-5.04,4.51-10.89,5.45-14.93,5.45c-12.77,0-21.85-9.43-21.85-21.08c0-11.83,9.31-21.2,21.96-21.2c3.98,0,9.55,0.94,13.88,4.22
				l-1.76,3.51c-5.1-3.4-9.55-3.63-11.54-3.63C817.09,574.06,811.64,583.07,811.64,591.22z"/>
		</g>
		<g>
			<path class="st1" d="M856.38,589.46c1.11-4.69,4.22-7.67,8.61-7.67c0.88,0,1.7,0.18,2.4,0.47v4.33
				c-0.76-0.41-1.82-0.59-2.69-0.59c-3.92,0-8.32,3.4-8.32,14.47v11.13h-4.39v-29.17h4.39V589.46z"/>
		</g>
		<g>
			<path class="st1" d="M876.58,599c0,7.14,3.75,9.31,7.5,9.31c3.22,0,9.84-2.23,9.96-11.71v-14.17h4.39v29.17h-4.39v-6.21
				c-1.58,4.68-5.92,6.85-10.25,6.85c-6.33,0-11.6-3.63-11.6-13.24v-16.57h4.39V599z"/>
		</g>
		<g>
			<path class="st1" d="M907.92,582.43h4.39v5.8c2.58-4.39,6.73-6.44,11.6-6.44c8.84,0,14.52,6.85,14.52,15.23
				c0,8.38-5.68,15.23-14.52,15.23c-4.86,0-9.02-2.05-11.6-6.44v18.92h-4.39V582.43z M923.49,585.71c-6.21,0-11.24,4.51-11.24,11.3
				c0,6.79,5.04,11.3,11.24,11.3c6.62,0,10.54-5.04,10.54-11.3C934.04,590.86,930.11,585.71,923.49,585.71z"/>
		</g>
		<g>
			<path class="st1" d="M958.69,581.79c8.43,0,15.34,6.91,15.34,15.23c0,8.43-6.91,15.23-15.34,15.23
				c-8.43,0-15.29-6.73-15.29-15.23C943.4,588.64,950.26,581.79,958.69,581.79z M958.69,608.32c6.03,0,10.95-5.04,10.95-11.24
				c0-6.27-4.92-11.36-10.95-11.36c-5.97,0-10.89,5.1-10.89,11.36C947.8,603.28,952.72,608.32,958.69,608.32z"/>
		</g>
		<g>
			<path class="st1" d="M999.57,569.37c1.82,0,3.22,1.41,3.22,3.28c0,1.87-1.41,3.22-3.22,3.22s-3.16-1.35-3.16-3.22
				C996.4,570.78,997.75,569.37,999.57,569.37z M1001.79,611.6h-4.39v-29.17h4.39V611.6z"/>
		</g>
		<g>
			<path class="st1" d="M1033.36,595.02c0-7.09-3.75-9.31-7.5-9.31c-3.22,0-9.84,2.28-9.96,11.71v14.17h-4.39v-29.17h4.39v6.21
				c1.58-4.63,5.92-6.85,10.25-6.85c6.32,0,11.6,3.69,11.6,13.24v16.57h-4.39V595.02z"/>
		</g>
		<g>
			<path class="st1" d="M1067.56,595.02c0-7.09-3.63-9.31-7.38-9.31c-3.22,0-8.9,2.28-9.02,11.71v14.17h-4.39v-29.17h4.39v6.15
				c1.58-4.68,5.8-6.79,9.78-6.79c3.1,0,7.79,1.11,10.01,6.85c2.28-5.51,6.79-6.85,10.25-6.85c6.62,0,11.54,3.57,11.54,13.24v16.57
				h-4.39v-16.57c0-7.09-3.63-9.31-7.38-9.31c-3.05,0-8.73,1.99-9.02,11.24v14.64h-4.39V595.02z"/>
		</g>
		<g>
			<path class="st1" d="M1114.82,581.79c8.43,0,15.34,6.91,15.34,15.23c0,8.43-6.91,15.23-15.34,15.23s-15.29-6.73-15.29-15.23
				C1099.53,588.64,1106.38,581.79,1114.82,581.79z M1114.82,608.32c6.03,0,10.95-5.04,10.95-11.24c0-6.27-4.92-11.36-10.95-11.36
				c-5.97,0-10.89,5.1-10.89,11.36C1103.92,603.28,1108.84,608.32,1114.82,608.32z"/>
		</g>
		<g>
			<path class="st1" d="M1137.36,569.25h4.39v18.98c2.58-4.39,6.73-6.44,11.6-6.44c8.84,0,14.52,6.85,14.52,15.23
				c0,8.38-5.68,15.23-14.52,15.23c-4.86,0-9.02-2.05-11.6-6.44v5.8h-4.39V569.25z M1152.94,585.71c-6.21,0-11.24,4.51-11.24,11.3
				c0,6.79,5.04,11.3,11.24,11.3c6.62,0,10.54-5.15,10.54-11.3C1163.48,590.75,1159.56,585.71,1152.94,585.71z"/>
		</g>
		<g>
			<path class="st1" d="M1177.54,569.37c1.82,0,3.22,1.41,3.22,3.28c0,1.87-1.41,3.22-3.22,3.22s-3.16-1.35-3.16-3.22
				C1174.37,570.78,1175.72,569.37,1177.54,569.37z M1179.76,611.6h-4.39v-29.17h4.39V611.6z"/>
		</g>
		<g>
			<path class="st1" d="M1194.11,611.6h-4.39v-42.34h4.39V611.6z"/>
		</g>
		<g>
			<path class="st1" d="M1206.23,569.37c1.82,0,3.22,1.41,3.22,3.28c0,1.87-1.41,3.22-3.22,3.22c-1.82,0-3.16-1.35-3.16-3.22
				C1203.07,570.78,1204.42,569.37,1206.23,569.37z M1208.46,611.6h-4.39v-29.17h4.39V611.6z"/>
		</g>
		<g>
			<path class="st1" d="M1246.47,611.6h-4.39v-5.8c-2.58,4.39-6.73,6.44-11.6,6.44c-8.84,0-14.52-6.85-14.52-15.23
				c0-8.37,5.68-15.23,14.52-15.23c4.86,0,9.02,2.05,11.6,6.44v-5.8h4.39V611.6z M1230.89,608.32c6.21,0,11.24-4.51,11.24-11.3
				c0-6.79-5.04-11.3-11.24-11.3c-6.62,0-10.54,5.04-10.54,11.3C1220.35,603.16,1224.27,608.32,1230.89,608.32z"/>
		</g>
		<g>
			<path class="st1" d="M1260.34,589.46c1.11-4.69,4.22-7.67,8.61-7.67c0.88,0,1.7,0.18,2.4,0.47v4.33
				c-0.76-0.41-1.82-0.59-2.69-0.59c-3.92,0-8.32,3.4-8.32,14.47v11.13h-4.39v-29.17h4.39V589.46z"/>
		</g>
		<g>
			<path class="st1" d="M1279.02,569.37c1.82,0,3.22,1.41,3.22,3.28c0,1.87-1.41,3.22-3.22,3.22c-1.82,0-3.16-1.35-3.16-3.22
				C1275.86,570.78,1277.21,569.37,1279.02,569.37z M1281.25,611.6h-4.39v-29.17h4.39V611.6z"/>
		</g>
		<g>
			<path class="st1" d="M1303.97,581.79c8.43,0,15.34,6.91,15.34,15.23c0,8.43-6.91,15.23-15.34,15.23s-15.29-6.73-15.29-15.23
				C1288.69,588.64,1295.54,581.79,1303.97,581.79z M1303.97,608.32c6.03,0,10.95-5.04,10.95-11.24c0-6.27-4.92-11.36-10.95-11.36
				c-5.97,0-10.89,5.1-10.89,11.36C1293.08,603.28,1298,608.32,1303.97,608.32z"/>
		</g>
	</g>
	<g>
		<g>
			<path class="st1" d="M819.14,671.9H806.9v-41h12.24c13.29,0,21.26,9.2,21.26,20.5S832.43,671.9,819.14,671.9z M819.14,634.65
				h-7.73v33.5h7.73c10.42,0,16.69-7.5,16.69-16.75S829.57,634.65,819.14,634.65z"/>
		</g>
		<g>
			<path class="st1" d="M873.19,667.45c-3.69,3.92-8.32,5.1-12.47,5.1c-10.07,0-16.4-6.79-16.4-15.11c0-8.49,6.62-15.34,15.7-15.34
				c7.5,0,14.52,4.69,14.64,15.17h-25.94c0,0.18,0,0.29,0,0.47c0,6.27,4.69,10.95,12.01,10.95c3.51,0,6.97-1.11,9.96-3.87
				L873.19,667.45z M849.18,653.86h20.91c-1.35-6.09-5.92-7.91-9.96-7.91C855.45,645.95,850.88,648.41,849.18,653.86z"/>
		</g>
		<g>
			<path class="st1" d="M892.99,649.35c-0.82-2.46-2.69-3.4-4.69-3.4c-3.4,0-5.33,2.28-5.33,4.51c0,2.4,2.05,3.57,4.04,4.22
				l4.33,1.41c5.15,1.7,6.97,4.74,6.97,7.96c0,5.33-4.86,8.49-10.25,8.49c-4.98,0-9.43-2.46-10.78-6.97l3.87-1
				c0.88,2.46,3.63,4.1,6.91,4.1s5.86-1.82,5.86-4.63c0-2.28-1.64-3.46-4.16-4.27l-4.1-1.35c-4.16-1.35-7.09-3.69-7.09-7.79
				c0-4.63,3.57-8.55,9.43-8.55c3.81,0,7.79,1.87,8.9,6.33L892.99,649.35z"/>
		</g>
		<g>
			<path class="st1" d="M932.11,671.9h-4.39v-5.8c-2.58,4.39-6.73,6.44-11.6,6.44c-8.84,0-14.52-6.85-14.52-15.23
				c0-8.37,5.68-15.23,14.52-15.23c4.86,0,9.02,2.05,11.6,6.44v-5.8h4.39V671.9z M916.53,668.62c6.21,0,11.24-4.51,11.24-11.3
				c0-6.79-5.04-11.3-11.24-11.3c-6.62,0-10.54,5.04-10.54,11.3C905.99,663.46,909.91,668.62,916.53,668.62z"/>
		</g>
		<g>
			<path class="st1" d="M944.52,649.76c1.11-4.69,4.22-7.67,8.61-7.67c0.88,0,1.7,0.18,2.4,0.47v4.33
				c-0.76-0.41-1.82-0.59-2.69-0.59c-3.92,0-8.32,3.4-8.32,14.47v11.13h-4.39v-29.17h4.39V649.76z"/>
		</g>
		<g>
			<path class="st1" d="M963.73,649.76c1.11-4.69,4.22-7.67,8.61-7.67c0.88,0,1.7,0.18,2.4,0.47v4.33
				c-0.76-0.41-1.82-0.59-2.69-0.59c-3.92,0-8.32,3.4-8.32,14.47v11.13h-4.39v-29.17h4.39V649.76z"/>
		</g>
		<g>
			<path class="st1" d="M990.61,642.09c8.43,0,15.34,6.91,15.34,15.23c0,8.43-6.91,15.23-15.34,15.23s-15.29-6.73-15.29-15.23
				C975.33,648.94,982.18,642.09,990.61,642.09z M990.61,668.62c6.03,0,10.95-5.04,10.95-11.24c0-6.27-4.92-11.36-10.95-11.36
				c-5.97,0-10.89,5.1-10.89,11.36C979.72,663.58,984.64,668.62,990.61,668.62z"/>
		</g>
		<g>
			<path class="st1" d="M1016.32,671.9h-4.39v-42.34h4.39V671.9z"/>
		</g>
		<g>
			<path class="st1" d="M1029.2,671.9h-4.39v-42.34h4.39V671.9z"/>
		</g>
		<g>
			<path class="st1" d="M1050.46,642.09c8.43,0,15.34,6.91,15.34,15.23c0,8.43-6.91,15.23-15.34,15.23s-15.29-6.73-15.29-15.23
				C1035.18,648.94,1042.03,642.09,1050.46,642.09z M1050.46,668.62c6.03,0,10.95-5.04,10.95-11.24c0-6.27-4.92-11.36-10.95-11.36
				c-5.97,0-10.89,5.1-10.89,11.36C1039.57,663.58,1044.49,668.62,1050.46,668.62z"/>
		</g>
		<g>
			<path class="st1" d="M1084.55,649.35c-0.82-2.46-2.69-3.4-4.69-3.4c-3.4,0-5.33,2.28-5.33,4.51c0,2.4,2.05,3.57,4.04,4.22
				l4.33,1.41c5.15,1.7,6.97,4.74,6.97,7.96c0,5.33-4.86,8.49-10.25,8.49c-4.98,0-9.43-2.46-10.78-6.97l3.87-1
				c0.88,2.46,3.63,4.1,6.91,4.1c3.28,0,5.86-1.82,5.86-4.63c0-2.28-1.64-3.46-4.16-4.27l-4.1-1.35c-4.16-1.35-7.09-3.69-7.09-7.79
				c0-4.63,3.57-8.55,9.43-8.55c3.81,0,7.79,1.87,8.9,6.33L1084.55,649.35z"/>
		</g>
		<g>
			<path class="st1" d="M1124.08,642.09c2.46,0,6.44,0.64,10.31,3.46l-2.11,3.05c-3.22-2.4-6.85-2.58-8.08-2.58
				c-7.26,0-12.12,4.8-12.18,11.3c0.06,6.5,4.92,11.3,12.18,11.3c1.23,0,4.86-0.18,8.08-2.58l2.11,3.05
				c-3.86,2.81-7.85,3.46-10.31,3.46c-8.96-0.12-16.46-5.45-16.46-15.23S1115.11,642.2,1124.08,642.09z"/>
		</g>
		<g>
			<path class="st1" d="M1151.83,642.09c8.43,0,15.34,6.91,15.34,15.23c0,8.43-6.91,15.23-15.34,15.23
				c-8.43,0-15.29-6.73-15.29-15.23C1136.55,648.94,1143.4,642.09,1151.83,642.09z M1151.83,668.62c6.03,0,10.95-5.04,10.95-11.24
				c0-6.27-4.92-11.36-10.95-11.36c-5.97,0-10.89,5.1-10.89,11.36C1140.94,663.58,1145.86,668.62,1151.83,668.62z"/>
		</g>
		<g>
			<path class="st1" d="M1193.71,655.32c0-7.09-3.63-9.31-7.38-9.31c-3.22,0-8.9,2.28-9.02,11.71v14.17h-4.39v-29.17h4.39v6.15
				c1.58-4.68,5.8-6.79,9.78-6.79c3.1,0,7.79,1.11,10.01,6.85c2.28-5.51,6.79-6.85,10.25-6.85c6.62,0,11.54,3.57,11.54,13.24v16.57
				h-4.39v-16.57c0-7.09-3.63-9.31-7.38-9.31c-3.05,0-8.73,1.99-9.02,11.24v14.64h-4.39V655.32z"/>
		</g>
		<g>
			<path class="st1" d="M1253.09,667.45c-3.69,3.92-8.32,5.1-12.47,5.1c-10.07,0-16.4-6.79-16.4-15.11c0-8.49,6.62-15.34,15.7-15.34
				c7.5,0,14.52,4.69,14.64,15.17h-25.94c0,0.18,0,0.29,0,0.47c0,6.27,4.68,10.95,12.01,10.95c3.51,0,6.97-1.11,9.96-3.87
				L1253.09,667.45z M1229.08,653.86h20.91c-1.35-6.09-5.92-7.91-9.96-7.91C1235.34,645.95,1230.78,648.41,1229.08,653.86z"/>
		</g>
		<g>
			<path class="st1" d="M1264.27,649.76c1.11-4.69,4.22-7.67,8.61-7.67c0.88,0,1.7,0.18,2.4,0.47v4.33
				c-0.76-0.41-1.82-0.59-2.69-0.59c-3.92,0-8.32,3.4-8.32,14.47v11.13h-4.39v-29.17h4.39V649.76z"/>
		</g>
		<g>
			<path class="st1" d="M1292.38,642.09c2.46,0,6.44,0.64,10.31,3.46l-2.11,3.05c-3.22-2.4-6.85-2.58-8.08-2.58
				c-7.26,0-12.12,4.8-12.18,11.3c0.06,6.5,4.92,11.3,12.18,11.3c1.23,0,4.86-0.18,8.08-2.58l2.11,3.05
				c-3.87,2.81-7.85,3.46-10.31,3.46c-8.96-0.12-16.46-5.45-16.46-15.23S1283.42,642.2,1292.38,642.09z"/>
		</g>
		<g>
			<path class="st1" d="M1310.19,629.67c1.82,0,3.22,1.41,3.22,3.28c0,1.87-1.41,3.22-3.22,3.22s-3.16-1.35-3.16-3.22
				C1307.02,631.08,1308.37,629.67,1310.19,629.67z M1312.41,671.9h-4.39v-29.17h4.39V671.9z"/>
		</g>
		<g>
			<path class="st1" d="M1348.96,671.9h-4.39v-5.8c-2.58,4.39-6.73,6.44-11.6,6.44c-8.84,0-14.52-6.85-14.52-15.23
				c0-8.37,5.68-15.23,14.52-15.23c4.86,0,9.02,2.05,11.6,6.44v-5.8h4.39V671.9z M1333.38,668.62c6.21,0,11.24-4.51,11.24-11.3
				c0-6.79-5.04-11.3-11.24-11.3c-6.62,0-10.54,5.04-10.54,11.3C1322.84,663.46,1326.76,668.62,1333.38,668.62z"/>
		</g>
		<g>
			<path class="st1" d="M1361.6,671.9h-4.39v-42.34h4.39V671.9z"/>
		</g>
		<g>
			<path class="st1" d="M1396.45,667.45c-3.69,3.92-8.32,5.1-12.47,5.1c-10.07,0-16.4-6.79-16.4-15.11c0-8.49,6.62-15.34,15.7-15.34
				c7.5,0,14.52,4.69,14.64,15.17h-25.94c0,0.18,0,0.29,0,0.47c0,6.27,4.68,10.95,12.01,10.95c3.51,0,6.97-1.11,9.96-3.87
				L1396.45,667.45z M1372.44,653.86h20.91c-1.35-6.09-5.92-7.91-9.96-7.91C1378.7,645.95,1374.14,648.41,1372.44,653.86z"/>
		</g>
		<g>
			<path class="st1" d="M1416.24,649.35c-0.82-2.46-2.69-3.4-4.69-3.4c-3.4,0-5.33,2.28-5.33,4.51c0,2.4,2.05,3.57,4.04,4.22
				l4.33,1.41c5.15,1.7,6.97,4.74,6.97,7.96c0,5.33-4.86,8.49-10.25,8.49c-4.98,0-9.43-2.46-10.78-6.97l3.87-1
				c0.88,2.46,3.63,4.1,6.91,4.1c3.28,0,5.86-1.82,5.86-4.63c0-2.28-1.64-3.46-4.16-4.27l-4.1-1.35c-4.16-1.35-7.09-3.69-7.09-7.79
				c0-4.63,3.57-8.55,9.43-8.55c3.81,0,7.79,1.87,8.9,6.33L1416.24,649.35z"/>
		</g>
	</g>
	<g>
		<g>
			<path class="st1" d="M1248.72,528.96c0-6.58,4.97-11.55,11.55-11.55c6.58,0,11.55,4.97,11.55,11.55
				c0,6.58-4.97,11.55-11.55,11.55C1253.69,540.51,1248.72,535.54,1248.72,528.96z"/>
		</g>
	</g>
	<g>
		<g>
			<path class="st1" d="M498.43,671.9L498.43,671.9l239.34,0c13.86,0,25.1-13.61,25.1-30.41v-29.5H547.89
				C520.57,611.99,498.43,638.81,498.43,671.9z"/>
		</g>
	</g>
	<g>
		<g>
			<path class="st1" d="M761.61,594.89H593.67c-0.7,0-1.26-0.56-1.26-1.26V409.23c0-0.7,0.56-1.26,1.26-1.26H751.9
				c6.06,0,10.97,4.91,10.97,10.97v174.68C762.87,594.32,762.31,594.89,761.61,594.89z"/>
		</g>
	</g>
</g>
</svg>
