<svg width="924" height="266" viewBox="0 0 924 266" fill="none" xmlns="http://www.w3.org/2000/svg">
<path d="M308.512 97.7299H330.352C330.522 106.82 337.342 112.93 350.972 112.93C364.782 112.93 371.592 106.81 371.592 97.7299C371.592 87.7699 360.932 85.8499 348.522 83.5699C331.222 80.4199 310.772 76.7599 310.772 50.1899C310.772 29.0399 326.852 14.1899 351.142 14.1899C374.732 14.1899 390.632 28.3499 391.512 49.3199H370.362C370.192 40.5799 363.722 34.2899 351.312 34.2899C338.732 34.2899 332.442 41.11 332.442 49.49C332.442 59.45 343.102 61.3699 355.512 63.6499C372.812 66.7999 393.432 70.4699 393.432 97.0299C393.432 119.22 376.482 133.03 350.962 133.03C325.642 133.03 309.032 119.57 308.512 97.7299Z" fill="#0473FB"/>
<path d="M398.73 0H419.53V56.49C425.3 47.23 434.21 42.16 445.22 42.16C465.14 42.16 484.02 55.09 484.02 85.85V130.76H463.22V85.84C463.22 69.41 454.48 61.55 441.38 61.55C428.62 61.55 419.54 69.76 419.54 85.84V130.75H398.74V0H398.73Z" fill="#0473FB"/>
<path d="M490.863 87.5899C490.863 61.3799 510.083 42.1499 537.353 42.1499C564.613 42.1499 583.833 61.3699 583.833 87.5899C583.833 113.8 564.613 133.03 537.353 133.03C510.083 133.03 490.863 113.8 490.863 87.5899ZM562.683 87.5899C562.683 72.3899 552.543 61.5499 537.343 61.5499C522.143 61.5499 511.833 72.3799 511.833 87.5899C511.833 102.79 522.143 113.63 537.343 113.63C552.553 113.63 562.683 102.79 562.683 87.5899Z" fill="#0473FB"/>
<path d="M591.09 80.5999C591.09 54.5599 606.47 42.1499 629.01 42.1499C651.55 42.1499 666.76 54.5599 666.76 80.9499V81.4699H646.14V80.5999C646.14 66.6199 639.15 61.5499 629.01 61.5499C618.88 61.5499 611.89 66.6199 611.89 80.5999V130.75H591.09V80.5999Z" fill="#0473FB"/>
<path d="M671.48 97.5501V13.8401H692.281V44.4201H736.84V63.2901H692.281V97.5401C692.281 109.07 698.221 113.62 706.781 113.62C715.341 113.62 721.281 109.25 721.281 97.5401V95.2701H742.08V97.5401C742.08 121.48 727.751 133.01 706.781 133.01C685.811 133.01 671.48 121.49 671.48 97.5501Z" fill="#0473FB"/>
<path d="M313.208 183.76C313.208 192.49 319.478 200.69 330.718 200.69C334.348 200.69 338.038 199.87 341.258 197.53V187.98H329.428V184.17H345.358V199.34C340.318 203.85 334.468 204.79 330.428 204.79C317.658 204.79 308.578 195.36 308.578 183.71C308.578 171.88 317.888 162.51 330.538 162.51C334.518 162.51 340.088 163.45 344.418 166.73L342.658 170.24C337.558 166.84 333.108 166.61 331.118 166.61C318.648 166.6 313.208 175.61 313.208 183.76Z" fill="#0473FB"/>
<path d="M357.949 182C359.059 177.31 362.169 174.33 366.559 174.33C367.439 174.33 368.259 174.51 368.959 174.8V179.13C368.199 178.72 367.139 178.54 366.269 178.54C362.349 178.54 357.949 181.94 357.949 193.01V204.14H353.559V174.97H357.949V182Z" fill="#0473FB"/>
<path d="M378.148 191.54C378.148 198.68 381.898 200.85 385.648 200.85C388.868 200.85 395.488 198.62 395.608 189.14V174.97H399.998V204.14H395.608V197.93C394.028 202.61 389.688 204.78 385.358 204.78C379.028 204.78 373.758 201.15 373.758 191.54V174.97H378.148V191.54Z" fill="#0473FB"/>
<path d="M409.477 174.97H413.867V180.77C416.447 176.38 420.597 174.33 425.467 174.33C434.307 174.33 439.987 181.18 439.987 189.56C439.987 197.94 434.307 204.79 425.467 204.79C420.607 204.79 416.447 202.74 413.867 198.35V217.27H409.477V174.97ZM425.057 178.25C418.847 178.25 413.817 182.76 413.817 189.55C413.817 196.34 418.857 200.85 425.057 200.85C431.677 200.85 435.597 195.81 435.597 189.55C435.597 183.4 431.677 178.25 425.057 178.25Z" fill="#0473FB"/>
<path d="M460.259 174.33C468.689 174.33 475.599 181.24 475.599 189.56C475.599 197.99 468.689 204.79 460.259 204.79C451.829 204.79 444.969 198.06 444.969 189.56C444.969 181.18 451.819 174.33 460.259 174.33ZM460.259 200.86C466.289 200.86 471.209 195.82 471.209 189.62C471.209 183.35 466.289 178.26 460.259 178.26C454.289 178.26 449.369 183.36 449.369 189.62C449.359 195.82 454.279 200.86 460.259 200.86Z" fill="#0473FB"/>
<path d="M501.129 161.91C502.949 161.91 504.349 163.32 504.349 165.19C504.349 167.06 502.939 168.41 501.129 168.41C499.319 168.41 497.969 167.06 497.969 165.19C497.969 163.32 499.319 161.91 501.129 161.91ZM503.359 204.14H498.969V174.97H503.359V204.14Z" fill="#0473FB"/>
<path d="M534.928 187.56C534.928 180.47 531.178 178.25 527.428 178.25C524.208 178.25 517.588 180.53 517.468 189.96V204.13H513.078V174.96H517.468V181.17C519.048 176.54 523.388 174.32 527.718 174.32C534.048 174.32 539.318 178.01 539.318 187.56V204.13H534.928V187.56Z" fill="#0473FB"/>
<path d="M569.13 187.56C569.13 180.47 565.5 178.25 561.75 178.25C558.53 178.25 552.85 180.53 552.73 189.96V204.13H548.34V174.96H552.73V181.11C554.31 176.43 558.53 174.32 562.51 174.32C565.61 174.32 570.3 175.43 572.52 181.17C574.8 175.66 579.31 174.32 582.77 174.32C589.39 174.32 594.31 177.89 594.31 187.56V204.13H589.92V187.56C589.92 180.47 586.29 178.25 582.54 178.25C579.49 178.25 573.81 180.24 573.52 189.49V204.13H569.13V187.56Z" fill="#0473FB"/>
<path d="M616.388 174.33C624.818 174.33 631.728 181.24 631.728 189.56C631.728 197.99 624.818 204.79 616.388 204.79C607.958 204.79 601.098 198.06 601.098 189.56C601.098 181.18 607.948 174.33 616.388 174.33ZM616.388 200.86C622.418 200.86 627.338 195.82 627.338 189.62C627.338 183.35 622.418 178.26 616.388 178.26C610.418 178.26 605.498 183.36 605.498 189.62C605.488 195.82 610.408 200.86 616.388 200.86Z" fill="#0473FB"/>
<path d="M638.93 161.79H643.32V180.77C645.9 176.38 650.05 174.33 654.92 174.33C663.76 174.33 669.44 181.18 669.44 189.56C669.44 197.94 663.76 204.79 654.92 204.79C650.06 204.79 645.9 202.74 643.32 198.35V204.15H638.93V161.79ZM654.51 178.25C648.3 178.25 643.27 182.76 643.27 189.55C643.27 196.34 648.31 200.85 654.51 200.85C661.13 200.85 665.05 195.7 665.05 189.55C665.05 183.29 661.13 178.25 654.51 178.25Z" fill="#0473FB"/>
<path d="M679.097 161.91C680.917 161.91 682.318 163.32 682.318 165.19C682.318 167.06 680.907 168.41 679.097 168.41C677.277 168.41 675.938 167.06 675.938 165.19C675.938 163.32 677.287 161.91 679.097 161.91ZM681.327 204.14H676.938V174.97H681.327V204.14Z" fill="#0473FB"/>
<path d="M695.679 204.14H691.289V161.8H695.679V204.14Z" fill="#0473FB"/>
<path d="M707.797 161.91C709.617 161.91 711.017 163.32 711.017 165.19C711.017 167.06 709.607 168.41 707.797 168.41C705.977 168.41 704.637 167.06 704.637 165.19C704.637 163.32 705.987 161.91 707.797 161.91ZM710.027 204.14H705.637V174.97H710.027V204.14Z" fill="#0473FB"/>
<path d="M748.03 204.14H743.64V198.34C741.06 202.73 736.91 204.78 732.04 204.78C723.2 204.78 717.52 197.93 717.52 189.55C717.52 181.18 723.2 174.32 732.04 174.32C736.9 174.32 741.06 176.37 743.64 180.76V174.96H748.03V204.14ZM732.459 200.86C738.669 200.86 743.7 196.35 743.7 189.56C743.7 182.77 738.659 178.26 732.459 178.26C725.839 178.26 721.92 183.3 721.92 189.56C721.91 195.7 725.839 200.86 732.459 200.86Z" fill="#0473FB"/>
<path d="M761.91 182C763.02 177.31 766.13 174.33 770.52 174.33C771.4 174.33 772.22 174.51 772.92 174.8V179.13C772.16 178.72 771.099 178.54 770.229 178.54C766.309 178.54 761.91 181.94 761.91 193.01V204.14H757.52V174.97H761.91V182Z" fill="#0473FB"/>
<path d="M780.59 161.91C782.41 161.91 783.81 163.32 783.81 165.19C783.81 167.06 782.4 168.41 780.59 168.41C778.78 168.41 777.43 167.06 777.43 165.19C777.43 163.32 778.78 161.91 780.59 161.91ZM782.82 204.14H778.43V174.97H782.82V204.14Z" fill="#0473FB"/>
<path d="M805.54 174.33C813.97 174.33 820.88 181.24 820.88 189.56C820.88 197.99 813.97 204.79 805.54 204.79C797.11 204.79 790.25 198.06 790.25 189.56C790.26 181.18 797.11 174.33 805.54 174.33ZM805.54 200.86C811.57 200.86 816.49 195.82 816.49 189.62C816.49 183.35 811.57 178.26 805.54 178.26C799.57 178.26 794.65 183.36 794.65 189.62C794.65 195.82 799.57 200.86 805.54 200.86Z" fill="#0473FB"/>
<path d="M320.709 264.44H308.469V223.44H320.709C333.999 223.44 341.969 232.64 341.969 243.94C341.969 255.24 333.999 264.44 320.709 264.44ZM320.709 227.19H312.979V260.69H320.709C331.129 260.69 337.399 253.19 337.399 243.94C337.399 234.69 331.129 227.19 320.709 227.19Z" fill="#0473FB"/>
<path d="M374.761 259.99C371.071 263.91 366.441 265.09 362.291 265.09C352.221 265.09 345.891 258.3 345.891 249.98C345.891 241.49 352.511 234.64 361.591 234.64C369.091 234.64 376.111 239.33 376.231 249.81H350.291C350.291 249.99 350.291 250.1 350.291 250.28C350.291 256.55 354.981 261.23 362.301 261.23C365.811 261.23 369.271 260.12 372.261 257.36L374.761 259.99ZM350.751 246.4H371.661C370.311 240.31 365.741 238.49 361.701 238.49C357.021 238.49 352.451 240.95 350.751 246.4Z" fill="#0473FB"/>
<path d="M394.558 241.89C393.738 239.43 391.868 238.49 389.868 238.49C386.468 238.49 384.538 240.77 384.538 243C384.538 245.4 386.588 246.57 388.578 247.22L392.908 248.63C398.058 250.33 399.878 253.37 399.878 256.59C399.878 261.92 395.018 265.08 389.628 265.08C384.648 265.08 380.198 262.62 378.848 258.11L382.718 257.11C383.598 259.57 386.348 261.21 389.628 261.21C392.908 261.21 395.488 259.39 395.488 256.58C395.488 254.3 393.848 253.12 391.328 252.31L387.228 250.96C383.068 249.61 380.138 247.27 380.138 243.17C380.138 238.54 383.708 234.62 389.568 234.62C393.378 234.62 397.358 236.49 398.468 240.95L394.558 241.89Z" fill="#0473FB"/>
<path d="M433.678 264.44H429.288V258.64C426.708 263.03 422.558 265.08 417.688 265.08C408.848 265.08 403.168 258.23 403.168 249.85C403.168 241.48 408.848 234.62 417.688 234.62C422.548 234.62 426.708 236.67 429.288 241.06V235.26H433.678V264.44ZM418.098 261.16C424.308 261.16 429.338 256.65 429.338 249.86C429.338 243.07 424.298 238.56 418.098 238.56C411.478 238.56 407.558 243.6 407.558 249.86C407.558 256 411.478 261.16 418.098 261.16Z" fill="#0473FB"/>
<path d="M446.089 242.3C447.199 237.61 450.309 234.63 454.699 234.63C455.579 234.63 456.399 234.81 457.099 235.1V239.43C456.339 239.02 455.279 238.84 454.409 238.84C450.489 238.84 446.089 242.24 446.089 253.31V264.44H441.699V235.27H446.089V242.3Z" fill="#0473FB"/>
<path d="M465.3 242.3C466.41 237.61 469.52 234.63 473.91 234.63C474.79 234.63 475.61 234.81 476.31 235.1V239.43C475.55 239.02 474.49 238.84 473.62 238.84C469.7 238.84 465.3 242.24 465.3 253.31V264.44H460.91V235.27H465.3V242.3Z" fill="#0473FB"/>
<path d="M492.181 234.63C500.611 234.63 507.521 241.54 507.521 249.86C507.521 258.29 500.611 265.09 492.181 265.09C483.751 265.09 476.891 258.36 476.891 249.86C476.891 241.48 483.751 234.63 492.181 234.63ZM492.181 261.16C498.211 261.16 503.131 256.12 503.131 249.92C503.131 243.65 498.211 238.56 492.181 238.56C486.211 238.56 481.291 243.66 481.291 249.92C481.291 256.12 486.211 261.16 492.181 261.16Z" fill="#0473FB"/>
<path d="M517.89 264.44H513.5V222.1H517.89V264.44Z" fill="#0473FB"/>
<path d="M530.769 264.44H526.379V222.1H530.769V264.44Z" fill="#0473FB"/>
<path d="M552.028 234.63C560.458 234.63 567.368 241.54 567.368 249.86C567.368 258.29 560.458 265.09 552.028 265.09C543.598 265.09 536.738 258.36 536.738 249.86C536.738 241.48 543.598 234.63 552.028 234.63ZM552.028 261.16C558.058 261.16 562.978 256.12 562.978 249.92C562.978 243.65 558.058 238.56 552.028 238.56C546.058 238.56 541.138 243.66 541.138 249.92C541.138 256.12 546.058 261.16 552.028 261.16Z" fill="#0473FB"/>
<path d="M586.108 241.89C585.288 239.43 583.418 238.49 581.418 238.49C578.018 238.49 576.088 240.77 576.088 243C576.088 245.4 578.138 246.57 580.128 247.22L584.458 248.63C589.608 250.33 591.428 253.37 591.428 256.59C591.428 261.92 586.568 265.08 581.178 265.08C576.198 265.08 571.748 262.62 570.398 258.11L574.268 257.11C575.148 259.57 577.898 261.21 581.178 261.21C584.458 261.21 587.038 259.39 587.038 256.58C587.038 254.3 585.398 253.12 582.878 252.31L578.778 250.96C574.618 249.61 571.688 247.27 571.688 243.17C571.688 238.54 575.258 234.62 581.118 234.62C584.928 234.62 588.908 236.49 590.018 240.95L586.108 241.89Z" fill="#0473FB"/>
<path d="M625.64 234.63C628.1 234.63 632.08 235.27 635.95 238.09L633.84 241.14C630.62 238.74 626.99 238.56 625.76 238.56C618.5 238.56 613.64 243.36 613.58 249.86C613.64 256.36 618.5 261.16 625.76 261.16C626.99 261.16 630.62 260.98 633.84 258.58L635.95 261.63C632.09 264.44 628.1 265.09 625.64 265.09C616.68 264.97 609.18 259.64 609.18 249.86C609.18 240.08 616.68 234.74 625.64 234.63Z" fill="#0473FB"/>
<path d="M653.399 234.63C661.829 234.63 668.739 241.54 668.739 249.86C668.739 258.29 661.829 265.09 653.399 265.09C644.969 265.09 638.109 258.36 638.109 249.86C638.119 241.48 644.969 234.63 653.399 234.63ZM653.399 261.16C659.429 261.16 664.349 256.12 664.349 249.92C664.349 243.65 659.429 238.56 653.399 238.56C647.429 238.56 642.509 243.66 642.509 249.92C642.509 256.12 647.429 261.16 653.399 261.16Z" fill="#0473FB"/>
<path d="M695.271 247.86C695.271 240.77 691.641 238.55 687.891 238.55C684.671 238.55 678.99 240.83 678.87 250.26V264.43H674.48V235.26H678.87V241.41C680.45 236.73 684.671 234.62 688.651 234.62C691.751 234.62 696.441 235.73 698.661 241.47C700.941 235.96 705.451 234.62 708.911 234.62C715.531 234.62 720.451 238.19 720.451 247.86V264.43H716.061V247.86C716.061 240.77 712.431 238.55 708.681 238.55C705.631 238.55 699.951 240.54 699.661 249.79V264.43H695.271V247.86Z" fill="#0473FB"/>
<path d="M754.659 259.99C750.969 263.91 746.339 265.09 742.189 265.09C732.119 265.09 725.789 258.3 725.789 249.98C725.789 241.49 732.409 234.64 741.489 234.64C748.989 234.64 756.009 239.33 756.129 249.81H730.189C730.189 249.99 730.189 250.1 730.189 250.28C730.189 256.55 734.869 261.23 742.199 261.23C745.709 261.23 749.169 260.12 752.159 257.36L754.659 259.99ZM730.649 246.4H751.559C750.209 240.31 745.639 238.49 741.599 238.49C736.909 238.49 732.339 240.95 730.649 246.4Z" fill="#0473FB"/>
<path d="M765.839 242.3C766.949 237.61 770.059 234.63 774.449 234.63C775.329 234.63 776.149 234.81 776.849 235.1V239.43C776.089 239.02 775.029 238.84 774.159 238.84C770.239 238.84 765.839 242.24 765.839 253.31V264.44H761.449V235.27H765.839V242.3Z" fill="#0473FB"/>
<path d="M793.948 234.63C796.408 234.63 800.388 235.27 804.258 238.09L802.148 241.14C798.928 238.74 795.298 238.56 794.068 238.56C786.808 238.56 781.948 243.36 781.888 249.86C781.948 256.36 786.808 261.16 794.068 261.16C795.298 261.16 798.928 260.98 802.148 258.58L804.258 261.63C800.388 264.44 796.408 265.09 793.948 265.09C784.988 264.97 777.488 259.64 777.488 249.86C777.488 240.08 784.988 234.74 793.948 234.63Z" fill="#0473FB"/>
<path d="M811.75 222.21C813.57 222.21 814.97 223.62 814.97 225.49C814.97 227.36 813.56 228.71 811.75 228.71C809.94 228.71 808.59 227.36 808.59 225.49C808.59 223.62 809.94 222.21 811.75 222.21ZM813.98 264.44H809.59V235.27H813.98V264.44Z" fill="#0473FB"/>
<path d="M850.518 264.44H846.128V258.64C843.548 263.03 839.398 265.08 834.528 265.08C825.688 265.08 820.008 258.23 820.008 249.85C820.008 241.48 825.688 234.62 834.528 234.62C839.388 234.62 843.548 236.67 846.128 241.06V235.26H850.518V264.44ZM834.948 261.16C841.158 261.16 846.188 256.65 846.188 249.86C846.188 243.07 841.148 238.56 834.948 238.56C828.328 238.56 824.408 243.6 824.408 249.86C824.398 256 828.328 261.16 834.948 261.16Z" fill="#0473FB"/>
<path d="M863.167 264.44H858.777V222.1H863.167V264.44Z" fill="#0473FB"/>
<path d="M898.018 259.99C894.328 263.91 889.698 265.09 885.548 265.09C875.478 265.09 869.148 258.3 869.148 249.98C869.148 241.49 875.768 234.64 884.848 234.64C892.348 234.64 899.368 239.33 899.488 249.81H873.548C873.548 249.99 873.548 250.1 873.548 250.28C873.548 256.55 878.228 261.23 885.558 261.23C889.068 261.23 892.528 260.12 895.518 257.36L898.018 259.99ZM874.008 246.4H894.918C893.568 240.31 888.998 238.49 884.958 238.49C880.268 238.49 875.698 240.95 874.008 246.4Z" fill="#0473FB"/>
<path d="M917.808 241.89C916.988 239.43 915.118 238.49 913.118 238.49C909.718 238.49 907.788 240.77 907.788 243C907.788 245.4 909.838 246.57 911.828 247.22L916.158 248.63C921.308 250.33 923.128 253.37 923.128 256.59C923.128 261.92 918.268 265.08 912.878 265.08C907.898 265.08 903.448 262.62 902.098 258.11L905.968 257.11C906.848 259.57 909.598 261.21 912.878 261.21C916.158 261.21 918.738 259.39 918.738 256.58C918.738 254.3 917.098 253.12 914.578 252.31L910.478 250.96C906.318 249.61 903.388 247.27 903.388 243.17C903.388 238.54 906.958 234.62 912.818 234.62C916.628 234.62 920.608 236.49 921.718 240.95L917.808 241.89Z" fill="#0473FB"/>
<path d="M750.289 121.5C750.289 114.92 755.259 109.95 761.839 109.95C768.419 109.95 773.389 114.92 773.389 121.5C773.389 128.08 768.419 133.05 761.839 133.05C755.259 133.05 750.289 128.08 750.289 121.5Z" fill="#0473FB"/>
<path d="M0 264.44H239.34C253.2 264.44 264.44 250.83 264.44 234.03V204.53H49.46C22.14 204.53 0 231.35 0 264.44Z" fill="#0473FB"/>
<path d="M263.18 187.43H95.2404C94.5404 187.43 93.9805 186.87 93.9805 186.17V1.77002C93.9805 1.07002 94.5404 0.51001 95.2404 0.51001H253.47C259.53 0.51001 264.44 5.42001 264.44 11.48V186.16C264.44 186.86 263.87 187.43 263.18 187.43Z" fill="#0473FB"/>
</svg>
